# xmcd
#
# Track frame offsets: 
#        150
#        22862
#        41796
#        58930
#        82744
#        109500
#        134183
#        168984
#        194853
#        224113
#        249456
#        271458
#        291604
#
# Disc length: 4397 seconds
#
# Revision: 0
# Processed by: cddbd v1.5.2PL0 Copyright (c) Steve Scherf et al.
# Submitted via: ExactAudioCopy v1.0b3
#
DISCID=d2112b0d
DTITLE=Indigenous - Time Is Coming
DYEAR=2014
DGENRE=Blues
TTITLE0=Grey Skies
TTITLE1=I'm Telling You
TTITLE2=Good At Feelin' Bad
TTITLE3=Time Is Coming
TTITLE4=Sun Up, Sun Down
TTITLE5=Around The World
TTITLE6=Won't Be Around No More
TTITLE7=You're What I'm Living For
TTITLE8=Day By Day
TTITLE9=So Far Gone
TTITLE10=Give Me A Reason
TTITLE11=Something's Gotta Change
TTITLE12=Don't Know What To Do
EXTD=
EXTT0=
EXTT1=
EXTT2=
EXTT3=
EXTT4=
EXTT5=
EXTT6=
EXTT7=
EXTT8=
EXTT9=
EXTT10=
EXTT11=
EXTT12=
PLAYORDER=
